/* XPM */
static char *df38556c61ca400d9e1d4823c3a13c0e44ORD88ScEGbJ5q9[] = {
/* columns rows colors chars-per-pixel */
"64 64 254 2 ",
"   c #18171B",
".  c #101018",
"X  c #191A24",
"o  c #161C34",
"O  c #2A1D2B",
"+  c #1C2236",
"@  c #1E232C",
"#  c #27232B",
"$  c #262A38",
"%  c #352C37",
"&  c #272D44",
"*  c #2B3349",
"=  c #353749",
"-  c #353B54",
";  c #4B3649",
":  c #6D3E4E",
">  c #37475C",
",  c #305065",
"<  c #2D6470",
"1  c #494658",
"2  c #554856",
"3  c #684A5B",
"4  c #6F4F5D",
"5  c #514E65",
"6  c #54576D",
"7  c #695968",
"8  c #725A70",
"9  c #796875",
"0  c #6E636E",
"q  c #56657A",
"w  c #845768",
"e  c #9F5671",
"r  c #A55D77",
"t  c #866A7A",
"y  c #986C7C",
"u  c #84727C",
"i  c #A6647C",
"p  c #84495D",
"a  c #393BA5",
"s  c #315098",
"d  c #10789C",
"f  c #3A7187",
"g  c #1374A2",
"h  c #2F6EB3",
"j  c #1D4BA7",
"k  c #527399",
"l  c #6C7488",
"z  c #797888",
"x  c #6E7890",
"c  c #5D6EA9",
"v  c #5E5E9D",
"b  c #787BC0",
"n  c #897987",
"m  c #967988",
"M  c #997B91",
"N  c #897186",
"B  c #A77889",
"V  c #B0758D",
"C  c #8576AF",
"Z  c #138BAC",
"A  c #2A91B3",
"S  c #1BA6BD",
"D  c #798798",
"F  c #718794",
"G  c #5391A8",
"H  c #788AA9",
"J  c #788DB1",
"K  c #6798BB",
"L  c #7C92B5",
"P  c #7995BA",
"I  c #6E90AA",
"U  c #59ACBD",
"Y  c #29AAC7",
"T  c #3DACD4",
"R  c #3AB8D7",
"E  c #30AFCD",
"W  c #369AC8",
"Q  c #649CC1",
"!  c #47B8D8",
"~  c #5ABAD8",
"^  c #4FACCB",
"/  c #67A7C5",
"(  c #77A5C7",
")  c #66B8D8",
"_  c #74B6D9",
"`  c #6CB2CF",
"'  c #49BBE4",
"]  c #58B9EB",
"[  c #67BCE4",
"{  c #75BBE4",
"}  c #4A93D7",
"|  c #3AC4DC",
" . c #3CC8E6",
".. c #3ED3E9",
"X. c #3DD5F4",
"o. c #46C4DB",
"O. c #54C4D9",
"+. c #65C3DD",
"@. c #44C4E3",
"#. c #4BC5E4",
"$. c #45CBE4",
"%. c #4BCCE5",
"&. c #4CCDEB",
"*. c #44CAE9",
"=. c #53CAE4",
"-. c #53CCEB",
";. c #5ACBED",
":. c #58C5E7",
">. c #43D3EC",
",. c #4CD2EC",
"<. c #48D3E7",
"1. c #53D3ED",
"2. c #5BD3EC",
"3. c #54D6EA",
"4. c #4ACDF3",
"5. c #5BCDF2",
"6. c #58CBF3",
"7. c #48D5F3",
"8. c #53D3F2",
"9. c #58D7F5",
"0. c #66C9E9",
"q. c #68CDF7",
"w. c #65D4F5",
"e. c #67D7F8",
"r. c #74DAFD",
"t. c #74C9EA",
"y. c #79E7FF",
"u. c #8B848C",
"i. c #96838C",
"p. c #8A8693",
"a. c #9A8797",
"s. c #9B949C",
"d. c #A5848D",
"f. c #A78897",
"g. c #B48B9D",
"h. c #B88896",
"j. c #A9939B",
"k. c #B8939B",
"l. c #888CA8",
"z. c #968BA4",
"x. c #9E95A7",
"c. c #828EB1",
"v. c #849ABD",
"b. c #8696B8",
"n. c #979BB7",
"m. c #8691AC",
"M. c #A98DA3",
"N. c #B88EA1",
"B. c #A494A3",
"V. c #AB94A4",
"C. c #AC94AB",
"Z. c #AC9BAC",
"A. c #A598A8",
"S. c #BC93A5",
"D. c #B49AAC",
"F. c #BC9BAC",
"G. c #B596A7",
"H. c #A99CB5",
"J. c #B49CB4",
"K. c #BC9CB3",
"L. c #B69BBA",
"P. c #97A4B7",
"I. c #8EA3B6",
"U. c #B7A1AE",
"Y. c #AAA2B5",
"T. c #B4A1B3",
"R. c #BCA4B6",
"E. c #AEA4AA",
"W. c #C4859E",
"Q. c #C29BAC",
"!. c #C395A5",
"~. c #C59CB5",
"^. c #CA88A3",
"/. c #C3A3B4",
"(. c #C3A5BB",
"). c #CAABBD",
"_. c #C8A6B9",
"`. c #C9A5B7",
"'. c #889DC4",
"]. c #8AA3C8",
"[. c #91A5CC",
"{. c #97A5C9",
"}. c #9AACD6",
"|. c #9BADD9",
" X c #95A9D3",
".X c #8BB8D9",
"XX c #9DB1DC",
"oX c #94BBDA",
"OX c #85A7D4",
"+X c #B9A8C7",
"@X c #A8ABD7",
"#X c #A6B5DC",
"$X c #AFADCC",
"%X c #97BAE5",
"&X c #83BBE6",
"*X c #A3B5E1",
"=X c #A5B9E4",
"-X c #A9BBE6",
";X c #ACBDE9",
":X c #B0BEE2",
">X c #B0BDF1",
",X c #AF9ECA",
"<X c #CBACC1",
"1X c #C4A9C6",
"2X c #C5B4D6",
"3X c #BCC4DB",
"4X c #87C7EB",
"5X c #95C3EA",
"6X c #95D1F3",
"7X c #AEC1EC",
"8X c #A6C6EA",
"9X c #B1C3EE",
"0X c #BAC7E8",
"qX c #A9C7F3",
"wX c #B4C6F2",
"eX c #B6C9F4",
"rX c #B9CBF6",
"tX c #BCCEF9",
"yX c #B9C7F5",
"uX c #BDD3F5",
"iX c #BED1FB",
"pX c #BDDCFD",
"aX c #B4D7FB",
"sX c #AAD9F9",
"dX c #85E8FF",
"fX c #90ECFF",
"gX c #AAE2FF",
"hX c #BDE2FF",
"jX c #B4E4FF",
"kX c #C6CCEA",
"lX c #C0CEF9",
"zX c #C2D3F5",
"xX c #CBD5F4",
"cX c #C6D5FF",
"vX c #C4D7FF",
"bX c #C5D6FE",
"nX c #C2D4FD",
"mX c #C9D6FE",
"MX c #C6D9FE",
"NX c #C6DAFD",
"BX c #CBDBFD",
"VX c #CAD9FF",
"CX c #CBDBFF",
"ZX c #C9D9FE",
"AX c #CCDCFF",
"SX c #CDDCFD",
"DX c #CADCFE",
"FX c #CDDAF6",
"GX c #D4D7F9",
"HX c #D4D0EE",
"JX c #C1E2FF",
"KX c #CCE0FF",
"LX c #D3E2FF",
"PX c #E2D5F3",
/* pixels */
"tXtXnXtXtXnXnXnXnXnXnXnXnXnXnXnXpXnXpXnXvXpXnXnXpXnXnXvXvXvXvXvXvXnXnXnXMXnXMXnXVXNXNXNXNXNXNXNXAXBXAXAXAXMXmXNXNXmXMXVXVXVXMXmX",
"tXnXnXnXtXnXlXnXnXnXnXnXnXnXnXnXvXnXnXnXvXnXnXvXnXnXvXvXvXvXvXvXvXnXcXbXcXMXMXcXMXNXAXNXNXAXAXNXAXAXVXAXVXAXmXBXmXMXVXVXVXmXcXVX",
"tXnXnXtXtXnXnXnXlXnXnXnXcXcXnXnXcXcXnXnXnXnXnXnXnXzXnXMXbXbXNXbXMXcXcXbXNXmXcXcXMXVXAXNXAXNXAXAXAXAXAXNXMXVXAXMXmXNXmXcXMXVXVXVX",
"tXnXnXtXtXtXnXnXnXnXnXnXnXcXnXnXnXnXnXcXMXcXMXnXNXnXnXnXNXbXbXnXcXMXbXmXmXbXbXbXBXmXVXBXAXMXVXAXmXVXAXAXAXAXVXVXNXmXVXVXVXVXVXVX",
"tXnXnXtXiXnXlXnXiXnXnXnXcXcXnXnXcXcXcXcXcXcXcXcXNXbXnXMXnXNXnXNXNXNXzXnXbXNXbXzXmXmXAXVXmXAXmXAXBXBXAXAXVXAXAXVXNXmXNXVXVXVXVXMX",
"tXlXlXnXlXnXnXnXnXnXcXcXnXnXnXcXcXcXcXcXcXcXcXcXbXbXMXnXNXzXNXbXbXNXNXNXmXxXmXmXmXNXVXVXmXmXAXAXAXBXVXAXAXAXAXMXNXNXmXAXVXVXVXcX",
"rXtXnXiXnXnXnXnXnXnXnXnXMXnXcXcXmXmXcXcXcXcXcXcXcXnXnXMXnXvXvXMXMXnXvXnXvXcXNXNXVXVXVXVXAXmXBXAXAXNXAXAXAXAXAXAXxXmXmXAXVXNXVXVX",
"yXtXnXnXnXnXtXnXcXnXnXnXnXnXvXcXnXnXcXcXcXcXMXnXnXcXcXnXcXnXnXMXMXvXvXvXMXMXMXbXMXVXmXVXmXAXmXSXAXAXAXAXAXAXAXAXNXAXNXBXmXAXVXVX",
"yXtXtXnXlXnXnXnXnXnXnXcXnXMXnXnXnXmXmXlXnXcXiXvXMXnXnXVXnXnXVXnXMXiXvXNXnXvXnXMXvXVXVXAXzXKXKXNXVXVXVXAXAXAXAXAXNXxXNXxXBXBXBXBX",
"wXrXiXnXnXnXnXnXnXnXnXnXcXnXnXnXcXnXnXnXMXcXvXnXiXAXnXlXnXAXnXzXvXAXAXiXnXMXvXvXNXpXuXNXKXuXNXKXAXAXAXAXAXAXAXAXNXmXBXmXAXBXBXBX",
"eXyXtXlXlXnXnXnXnXnXnXcXnXnXcXnXnXuXiXnXrXrXiXiXiXnXeXSXmXlXFXSXlXnXAXVXMXVXVXVXNXBXKXAXzXKXuXAXMXAXAXAXAXAXAXSXxXNXBXAXAXAXBXNX",
"yXrXrXrXnXnXnXiXnXnXnXnXnXnXnXnXuXnXnXiXiXiXnXiXiXiXlXrXkXFX#X}.n.P.0XmXkXxXSXzXxXNXuXNXNXNXKXNXMXAXVXAXAXAXAXAXAXAXBXAXAXAXBXBX",
"eXeXeXrXnXnXnXlXnXnXnXnXnXnXiXnXlXcXrXtXiXuXeX0XuX0XkXkX6 @ * + & * = & > P.xXxXxXBXLXnXKXKXnXNXMXAXVXAXAXAXAXBXAXSXBXBXBXBXSXKX",
"wXeXeXrXtXnXnXnXnXnXlXnXiXtXtXtXtXlXyXrXtX0XeXuX0X0Xq & > $ $   X + $ $ & + * q FXFXzXKXuXAXMXKXVXAXAXAXBXAXSXAXAXAXBXBXBXBXSXSX",
"wXyXrXrXtXtXnXnXnXnXnXiXtXtXtXrXyXtXyXrXwXwXzX7X].& + + # # # #   X # @ $ = & & * 0XmXAXVXAXMXnXVXAXAXAXAXSXAXSXKXAXSXBXBXBXSXSX",
"wXwXrXrXrXtXtXtXlXnXnXlXtXtXrXrXyXyXyXyX7X0X#Xl * X + $ # .     # .   # X $ * $ & * kXxXAXVXcXAXMXAXMXAXSXAXSXAXAXSXBXSXKXBXBXxX",
"wXyXrXrXrXtXtXnXnXtXnXtXrXrXeXyXwXwX>X>X;X3XF & # X $ X $ .   .       # X # # * $ = - HXAXAXNXNXMXMXMXAXAXNXKXKXAXAXBXBXBXBXBXAX",
"0XyXeXyXrXtXtXtXtXlXtXtXtXrXyXwX>X>X>X>X@X@X+ + @ # X X .   .     O # % # % % % ; = & l.BXuXAXAXMXAXMXAXKXNXAXNXAXAXBXBXAXBXBXAX",
"9XeXeXyXyXtXyXtXtXlXlXrXyXyXwX7XwX-XXX|.@Xb.& $     O # # # # % ; % % 1 1 2 2 % 1 1 = * xXLXKXnXMXAXAXNXAXAXKXKXAXAXAXBXBXAXBXAX",
"9XeXwXeXrXrXrXyXtXtXrXrXyXwX;X;X-X}.XX@X{.> $ @ # % 4 9 B.j.G.i.j.U.R.R.E.T.E.Z.p.7 = = 0XxXnXAXMXMXNXAXNXAXNXNXAXAXAXAXBXBXBXBX",
"eXeXwXeXrXyXyXeXrXrXrXrXwX>X>X=X@X#X}.v.m.* + $ 2 4 a.U.G.U.Q.U.F.U./.R.U.R.U.Z.A.B.7 & x SXzXKXNXAXNXAXNXAXNXAXAXSXAXAXAXBXBXBX",
"eXeX9XeXeXrXeXeXeXrXyXeXwX>X-X*X}.{.v.v.n.+ = u.i.a.j.S.k.U.!.G.G.G.R._./.U.U.D.Z.B.0 1 - FXKXAXMXMXAXNXAXNXAXNXBXAXAXAXAXAXAXBX",
"yXeX9XeXyXeXwX9XeXwX9X9XwX:X*XXX X].c.c.m.+ 2 n u.i.V.N.F.Q.Q.Q././.).).)./.K.D.J.H.0 5 > FXuXNXNXAXNXAXNXAXNXKXAXAXAXAXAXBXAXBX",
"rXeXwXwXeXyXeXwX9XwX9X9X9X>X*X|.[.I.L c.H + 2 u.i.f.g.G.F./.U.)./.).).).(.F.G.M.C.H.n 5 = KXKXNXAXNXAXNXAXNXAXNXSXAXAXKXAXAXAXBX",
"rXrXyXeXwXeXeXeX>X9X9X9X;X-X@X}. Xv.c.m.H $ 1 u.i.a.V.D.~.~.).).).).1XM 4 3 8 N 9 C.A.5 > xXBXNXAXNXAXNXNXKXNXKXKXAXKXSXSXAXSXSX",
"yXeXwX9X9XwX9XwX9X>X9X:X>X-XXX}.].v.v.v.b.* 6 n N 9 8 3 8 C.D.<XU.).N 3 M M.M.M.N 9 H.5 5 GXBXKXNXAXMXAXAXNXBXBXmXBXBXBXBXBXFXmX",
"rXrXeXwX9X9X9X9X9X9X;X;X=X*X|.[.'.J J H m.- 6 z 2 0 8 9 8 2 N K.).<Xj.f.M N M N f.z.+X6 5 HXGXzXNXnXNXzXnXNXNXzXFXNXmXBXBXNXBXBX",
"lXrXyXyXwXwXwXwX;X>X;X-X=X*X}.[.'.b.L H m.q 1 0 0 M a.M M N 9 m U.R.M a.t ; ; 8 N Z.L.7 q HXHXxXmXNXmXNXNXNXNXNXBXAXBXBXBXAXAXAX",
"tXtXrXeXwX9XwX9X9X9X:X-X-X*X|. X'.L J c.l.l.1 N u 3 7 O N N 9 N ~.~.M m m 8 8 M 3 M.H.n M z.2XGXSXAXNXAXNXAXNXAXBXBXmXSXBXAXAXAX",
"tXtXyXyXwX9X9X9X9X;X-X-X-X*X}. X[.b.J c.H l.- n 9 3 M.: M M t y G.S.N.g.V M.N.g.d.f.(.M.H.C.H.HXxXmXNXNXMXMXNXNXBXBXSXBXAXSXKXAX",
"tXlXtXtXwXwX9X9X9X;X;X-X=X*X@X Xb.c.L b.l.z 5 i.9 9 t i.V M N m !.Q.S.N.Q.~.~.~.F.S.S.~.M.L.L.PXGXVXMXVXAXKXAXKXAXSXAXAXAXSXAXAX",
"tXtXtXyXeX9X9XwX9X;X;X-X-X*X}.'.].P L H l.5 8 d.i.y B g.M.V y m N.Q.S.S._./.`./.`.F.G.K.M.1XC.PXBXNXNXMXNXAXNXBXAXBXBXBXBXSXAXAX",
"lXlXlXyXeXwX9X9X>X;X;X-X=X%X}.[.'.b.J H z.7 4 d.m f.h.g.d.k.y m N.Q.S.g.(.R.<X).~.~.J.Z.~.~.H.GXmXmXNXAXNXAXMXVXAXNXKXNXKXKXNXKX",
"tXlXtXtXeXwXwXwX>X;X;X-X-X*X|.}.'.L J H a.t 3 d.m B g.k.k.k.u f.~.`.N.S.<X<X<X<X~.~.J.K.~.L.H.xXmXNXNXNXVXMXMXMXNXAXNXNXBXBXNXKX",
"lXlXtXtXyXeX9X9X9X;X-X-X-X#X|.}.].'.J J l.N 3 y m f.h.g.k.h.y 4 V N.B N././.<X<X~.Q.D.C.L.L.+XHXmXMXNXNXMXNXNXVXKXKXNXKXKXNXAXKX",
"lXcXnXtXrXeX9X9X9X;X-X-X=X*X}.{.'.L J J z l 2 7 p.a.f.S.!.j.d.w B !.V S.F.Q./.~.~.~.C.A.L.2XHXGXmXAXVXVXAXNXAXNXNXBXNXBXAXKXNXAX",
"tXtXtXlXiXyXeXwX9X9X-X-X-X=X|. X'.v.L L H D z 7 p.p.S.g.d.d.m 4 B W.i V B g.G.U.F.K.J.$XkXkXLXNXBXBXAXNXAXNXNXAXKXNXKXNXNXKXAXKX",
"tXtXtXtXtXrX9X9X9X;X-X;X-X-X%X|.[.v.L I H D z.l p.p.M M d.u w B h.W.^.W.h.y d.j.F.D.Y.3XFXxXKXzXNXNXmXNXAXNXAXNXNXBXNXAXKXNXKXNX",
"tXtXtXtXyXyX9X7X7X-X-X-X-X-X%X}. X'.P J H H m.z D D f.f.4 4 y i i r W.r i p B k.Q.D.Y.3XFXNXMXMXNXNXNXMXMXMXMXNXBXKXKXNXAXKXAXKX",
"lXlXtXlXnXiXrXeX7X7X=X#X*X#X}.[.v.P L I I I x D F D M N 9 y 4 p e r i V i W.d.d.k.T.Y.0XNXAXMXAXAXMXVXNXMXAXMXVXNXNXNXAXNXNXKXNX",
"tXiXtXtXiXiXrXyXwXwX7X-X;X7X=XXX}.].].P P H H H I F u.u.9 m p i W.W.h.B h.!.h.d.k.U.P.FXmXmXAXcXNXNXNXNXMXMXKXNXKXNXNXNXFXNXKXKX",
"tXnXtXtXiXiXtXeXwXqX8X*X#X-X#XXX X].I.b.P P J I F F u.u.u d.y i i V g.f.k.h.d.k.E.E.{.KXAXVXmXmXVXVXMXVXNXMXMXvXNXBXKXNXNXNXNXFX",
"tXnXtXtXtXaXtXrXeXwX7X=X*X*X#X|. X[.].( P P I I F F n u.u y d.h.W.W.Q.U.Q.!.k.h.k.A.3XKXVXGXxXKXNXNXNXNXNXMXNXKXNXNXKXNXNXxXNXNX",
"lXtXiXtXtXrXtXrXrXwX7X=X*X%X%X#X X[.OX( ( P K I q 9 9 u.u.t d.d.h.Q.).`.!.k.k.h.a.P.0XaXnXBXmXKXNXMXNXNXNXNXNXNXKXNXNXNXNXJXNXNX",
"iXiXiXtXtXtXrXeXyXwX7X=X*XXXXX|.}.].].( P K K I $ F 9 9 u u.d.i.g.Q.<X1X`./.k.i.i.P.|.6XaXiXhXzXNXNXKXAXNXNXNXNXNXNXNXNXKXNXNXNX",
"iXiXiXiXtXtXrXeXyXyXqX;X=XXX|.|.}.'.( ( Q K / G X u.9 0 7 u i.s.G.G.K.K.D.j.i.i.j.P.G { gXaXsXuXuXNXvXKXKXAXNXNXNXNXKXNXNXKXNXKX",
"nXiXiXiXiXiXtXeX7XqX>X>X=XXX|.|.}.'.( Q K K / f $ u.u 9 4 0 0 u.f.j.Z.C.a.i.u.V.Y.P.f Q qXpXpXuXuXuXuXNXNXAXNXKXJXFXNXKXKXNXKXNX",
"nXiXtXaXiXiXiXqXqXqX;X>X=XXX X XOXOX/ Q / ^ ~ < 2 i.i.n u 0 0 0 9 u t t i.x.j.Z.E.Y., f { jXJXNXzXpXuXuXuXpXNXNXAXBXBXNXNXFXJXNX",
"nXiXiXiXaXrXeXqXeX7X-X-X%XXX XOX( ` ) ) ^ ^ U G 6 i.j.i.d.y u n i.j.U.E.B.B.D.J.T.Y.9 < { t.jXpXnXKXNXpXiXpXeXMXcXAXKXKXAXNXJXJX",
"lXnXaXrXrXaXqXeX8X8X-X=X%X|._ ` ) ~ ^ ' ! ^ o.G l i.s.j.g.i.m a.B.j.G.G.B.A.C.L.Y.E.p., ) r.t.sXjXhXpXJXpXNXuXzXMXzXuXzXAXAXNXNX",
"tXtXtXrXwXqXqXqX;XqX%X&X_ _ _ [ 0.t.! ' T R o.U F p.s.s.E.j.a.M.s.B.B.V.V.Z.L.1XT.Y.u., +.;.t.t.4X6XjXjXpXAXAXnXuXuXpXuXnXcXmXVX",
"tXtXrXqXyXqXqXqX8X%X&X{ ) ) :.0.! :.^ ! T R | O.k s.s.j.x.A.f.a.z.x.V.Z.Z.D.R.1XT.Y.u.< 0.#.e.q.w.0.t.4XsXjXhXhXJXhXhXpXnXcXmXGX",
"yXyXeXqXwXqX5X%X&X{ [ ~ :.:.O.%.%.#.E T ' R | O.I l.x.H.H.x.f.z.C.L.L.L.L.L.R.T.Y.x.I G 0.;.6.5.6.:.:.0.t.t.4XgXgXhXpXpXnXMXMXMX",
"wXwXqX8X5X5X&X_ [ ) ] :.=.=.%.%.*.&.T T T E | O.` b.z.A.E.A.z.B.C.H.L.H.H.L.T.E.E.P.F +.O.5.8.8.9.9.6.#.O.w.0.t.4X6XjXhXJXNXMXpX",
"5X8X6X5X{ { [ ~ ~ ;.-.&.&.<.<.@.4.5.' ' T R  .! +./ m.n.H.A.B.V.M.C.Z.G.H.L.E.E.Y.P.G +.:.1.9.8.9.@.-.*.Z @.e.' 0.t.4XsXjXhXJXAX",
"5X5X4X_ [ ~ ' ] :.6.] #.-.;.| Y g d g ' ' ' R ! o.O.I.I.n.C.Z.C.G.C.N.L.L.L.E.A.$XI.` 2.5.-.>.8.,.9.%.,.>.9.@.6.:.W A Q 4XgXhXhX",
"%X_ _ _ ~ :.! d g g g A Z Z Y 6.&.@.Y ' R  . .R | O.` I.H.L.K.K.C.K.D.D.R.L.J.+X+Xv [ -.5.$.<.<.<.<.<.,.4.9.9.8.8.4.-.0.+.) 6XjX",
"_ ` ` g A W ' -.5.] ] q.6.' @.*.<.@.Y  . . .R R | | O.K '.,X1X_.K.(.D.F.R.H.+X@XC s [ 4.8.,.3.$.<.,.9.9.*.8.4.8.4.9.&.2.0.O.t.fX",
"^ ) O.! =.3.@.*.4.&.*.4.&.4.8.&.$.8. .|  . .E &.| o.2.+.oX@X+X2X1X(.`.T.R.2X@Xv s h 0.<.4.*.%.-.1.,.8.1.&.9.3.3.8.9.o.;.w.w.0.w.",
"~ ! ~ o.R %.*.<.>.4.>.7.*.@.&.&.-.#.$.S ..| R R o.O.| ^ _ 8X@X2X+X2X(.1X$X{.s s j j A S | 4.1.=.9.5.5.2.=.9.=.3.2.2.:.e.-.;.5.5.",
"R o.o.=.E #.,. .>.>.>.7.>.*.8.;.0.[ :.=.%.,.R R E E | | d 6XjX#X@X2X1X,X@Xc s h h W 4... .Y Y 2.;.e.y.y.y.y.dXfXfXdXe.r.w.w.w.5.",
"! o.| -.o.O.-.%.<.&.%.&.&.#.9.e.r.dXw.! Z ..|  .$.7.X.Y | A G oXkX,X1X,Xb s } 6.6.#.>.X.X.4.=.1.-.5.w.q.0.w.0.0.0.w.O.w.y.y.5.5.",
"o.o.#.| <.E e.y.dXdXdXr.w.-.8.8.9.#.o.$.$.| ....X.4. .7.| O.O.6X|.rX@XC a j ] 6.o.,.7.X.X.7.>.3.3.3.1.3.3.9.9.3.3.9.<.3.2.3.;.e.",
"E @.%.%.o.Y :.0.[ { [ [ 0.=.1.*.<.,.<.<...>...X. .4.4.4.7.o.=.t.gX7X2Xv a j q.' 3.7.7.X.X.X.7.3.7.7.9.8.,.9.3.3.3.3.<.3.3.3.3.3."
};
