/* XPM */
static char *_a6c076716b848e4c14e7738710066b92FugR91BeV16tKCV[] = {
/* columns rows colors chars-per-pixel */
"64 64 194 2 ",
"   c #040B0C",
".  c #0A0C0D",
"X  c #040707",
"o  c #07100F",
"O  c #0C110E",
"+  c #11110F",
"@  c #060E10",
"#  c #0B0E11",
"$  c #100F14",
"%  c #061112",
"&  c #0C1314",
"*  c #0D1719",
"=  c #0D1B1C",
"-  c #121515",
";  c #141916",
":  c #131619",
">  c #141B1B",
",  c #1A1D1C",
"<  c #181816",
"1  c #16201F",
"2  c #1D221F",
"3  c #0D1D21",
"4  c #111E23",
"5  c #1E1F21",
"6  c #0E2226",
"7  c #132324",
"8  c #1C2322",
"9  c #1C2827",
"0  c #152529",
"q  c #162A2C",
"w  c #1B2A2C",
"e  c #1D262B",
"r  c #1C2D31",
"t  c #162F33",
"y  c #163235",
"u  c #1E3234",
"i  c #1C3B3D",
"p  c #232525",
"a  c #242826",
"s  c #262629",
"d  c #252A2A",
"f  c #2B2B2B",
"g  c #302E2F",
"h  c #2E302F",
"j  c #212E32",
"k  c #2D2E30",
"l  c #233335",
"z  c #2A3335",
"x  c #243539",
"c  c #2A373A",
"v  c #25393B",
"b  c #2B3B3D",
"n  c #323D3E",
"m  c gray20",
"M  c #2E413F",
"N  c #253E42",
"B  c #2C3D42",
"V  c #313F40",
"C  c #2D4144",
"Z  c #2E4549",
"A  c #2F4B4E",
"S  c #334344",
"D  c #394546",
"F  c #344649",
"G  c #39474A",
"H  c #35494C",
"J  c #3B4B4D",
"K  c #364C51",
"L  c #3C4E51",
"P  c #3D5154",
"I  c #3D5558",
"U  c #3E5857",
"Y  c #404E4E",
"T  c #414E52",
"R  c #435355",
"E  c #485457",
"W  c #445559",
"Q  c #49575A",
"!  c #455A5C",
"~  c #4A5B5D",
"^  c #515E5F",
"/  c #4D605E",
"(  c #455E61",
")  c #4C5E61",
"_  c #515E62",
"`  c #466062",
"'  c #4D6264",
"]  c #4E6569",
"[  c #4E6A6D",
"{  c #526365",
"}  c #596466",
"|  c #536669",
" . c #596669",
".. c #55696C",
"X. c #5B6B6D",
"o. c #526866",
"O. c #566E71",
"+. c #5B6E71",
"@. c #557275",
"#. c #5C7275",
"$. c #5E7579",
"%. c #5E797C",
"&. c #616D6D",
"*. c #606F72",
"=. c #637375",
"-. c #62767A",
";. c #6B777A",
":. c #64797C",
">. c #6B7B7D",
",. c #687676",
"<. c #727B7F",
"1. c #657E82",
"2. c #6A7E81",
"3. c #747E81",
"4. c #658184",
"5. c #6C8285",
"6. c #6D8689",
"7. c #6D898B",
"8. c #728485",
"9. c #798486",
"0. c #738689",
"q. c #7B8589",
"w. c #748A8D",
"e. c #7B8B8D",
"r. c #758D91",
"t. c #7A8E92",
"y. c #759194",
"u. c #7C9295",
"i. c #7D9499",
"p. c #7C999C",
"a. c #828B8E",
"s. c #828E91",
"d. c #839495",
"f. c #899496",
"g. c #83969A",
"h. c #8C9699",
"j. c #849A9C",
"k. c #8A9B9D",
"l. c #849897",
"z. c #929A9E",
"x. c #869DA1",
"c. c #8B9EA2",
"v. c #919FA2",
"b. c #85A1A3",
"n. c #8DA2A5",
"m. c #8DA5A9",
"M. c #8DA9AC",
"N. c #92A2A4",
"B. c #99A4A6",
"V. c #93A6A9",
"C. c #9AA6AA",
"Z. c #95A9AC",
"A. c #9AABAD",
"S. c #96ADB1",
"D. c #9BADB1",
"F. c #96B1B5",
"G. c #9DB1B4",
"H. c #9FB7B9",
"J. c #9EB8B9",
"K. c #A1ACAE",
"L. c #A2AFB2",
"P. c #A3B3B5",
"I. c #ABB4B6",
"U. c #A4B6B9",
"Y. c #AAB7B9",
"T. c #A5B9BC",
"R. c #ABBBBD",
"E. c #AEB8B7",
"W. c #B1BCBE",
"Q. c #B2B5BA",
"!. c #A6BEC0",
"~. c #ACBEC1",
"^. c #B2BFC1",
"/. c #B8BBC0",
"(. c #ADC1C4",
"). c #ABC4C8",
"_. c #B3C2C4",
"`. c #B9C4C5",
"'. c #B4C5C9",
"]. c #BAC6C9",
"[. c #B5C9CC",
"{. c #BCCACC",
"}. c #BCCDD1",
"|. c #BED1D3",
" X c #C1CCCD",
".X c #C2CFD1",
"XX c #C5D3D5",
"oX c #CAD4D5",
"OX c #C5D4D9",
"+X c #C9D7DA",
"@X c #CCDBDD",
"#X c #D0DEDF",
"$X c #D4DFE1",
"%X c #D7E7E9",
/* pixels */
"i.(.!.J.G.T.Z.P.Z.N.n.k.n.N.k.l.j.p.x.u.d.k.u.l.t.j.r.i. .# $ 5 # 5 . &.t.e.r.w.w.e.w.q.i.0.r.w.2.r.2.e.g.t.t.0.t.x.t.w.t.t.g.| ",
"V.u.w.p.V.n.S.Z.J.l.k.w.l.u.o./ j.] 1.>.8.;.o.o.r.#.o.,.T # # 5 X ,   3.-._ 1.| =.=.5.o.) 1.r.#.-.| _ -.-.| -.) +.#.u.1.3.$.1.I ",
"x.5.6.x.i.n.%XH Z.k.>.k.V.w.XXu ..#.O...l.>.%Xv %.-.$.t.E   . s $ $ . s.+.0.+.| n.L ~ { +.:.1.+.Z.N ( 3.1.X.=.) t.' ' +.+.Q 1.B ",
"G.p.#.@.l.M.W u c.l.Z.k.V.l.M 9 -.+.2.e.d.e.v 7 2.i.+.l.R # . 5 + < X 3.+.$.O._ v 0 R E  .8.w.2.c q _ $.3.5.X.| F 3 { $.+.L 1.B ",
"S.i.O.1.k.G.T.T.L.t.c.D.K.v.l.l.x.2.+.e.3.g.t.3.6.e.+.d.E O . : X ,   q.+.| | ( o.E { E X.,.1.3.*.;.+.2.s.>.+.+.| +.-.+.| 1.1.V ",
"Z.m.t.p.Z.o.U L F B x l l M j l x q e e r j x B 1.-.2.k.{   . 5 . -   9. .=.+.~ 7 7 9 1 d w r l r j w x l j z j r 0 0.| 1.+.) I ",
"Z.j.Z.y.S.w.H M r 3 r 0 0 3 1 0 3 4 4 * 4 @ * +.:.e.O.7.{   . , X < @ >.o.X.( L u = & 2 = 7 4 4 7 0 9 * e 0 * 7 4 V Z.X.| O.+.u ",
"D.j.%XP m.-.H ..+.O.W ( ~ T J J V V j c z 4 e _ +.P./ :.{   . 5 + -   e.~ R.q R u * d M j S V V V n n b D j v l q G G.) 1.B | N ",
"Z.S.L B G.r.K 0.t.t.2.X.;._ _ _ T Q V T V B j 2.r.R q +._     5 . - o 9.' x q P u % l M V V V G T V B V T V V B j K P.=.F u H Z ",
"U.m.H.!.'.$.L r.g.t.j.w.-.2._ W V Q E Q B k j *.0.t.2.t._   # 5 X < % e.X...~ #.l = m Y Y V V V V T V V V V T B b R D.-.' ( / Z ",
"D.~.[.!.~.0.A x.w.i.x.w.t.X.-.) B V Y Y s B B *.e.t.0.e._ @ # s O ,   d.{ o.U ~ z 1 M Y Y V K V T T V L G V V V c R U.r.w.5...C ",
"S.D.'.'.[.t.I i.b.0.u.r.2.1.1.Q K T E Y z V e *.r.t.g.g._ & X : . O O s.:.' o.` v 1 M M V W E ( L R B T E E T T D T U.t.:.:.@.P ",
"~.L.~.'.~.1.I 1.M.b.1.1.x.r.1.) L ~ ) T D D 0 ..3.2.t.x._   X p . ,   e.#./ ] ! b 7 Y V D _ W W R ( G R _ _ | ) L Q ~.g.-.@.5./ ",
"C.~.~.|.[.1.N 1.M.M.i.r.i.2.i.] K L ~ T G G r =.r.1.=.s._   # s X 2   d.+.' ' -.C 0 ~ J K ) B K P ) I P ) *.+.W G ( ~.g.$.+.7.A ",
"L.!.^.}.|.1.K b.m.M.M.i.1.i.1.] H G ~ Q D V c +.0.c.1.t.~ . # : O - & l.5.X.U 5.C r ~ ~ W ( F K W ] ) ( ) O.*.W )  .[.g.1...u.P ",
"D.!.OX2.}.2.K 2.M.p.F.F.i.x.2.| C B ~ _ D S B  .1.t.L =.Q . & a . 2 X A.8.A.I 6.C q R _ ~ W W ( ` ] | +.+._ 1. .T | (.t.$.P 1.Z ",
"L./.e.J ^.x.K h.N.N.F.M.G.J.u./ v M J G T J J =.#.P i ..~ % O p - , & L.x._ x 2.S q P J ] +.1.%.@.@.1.1.1.1.+.1.W _ ^.2.1.K _ A ",
"L.}.I.'.@Xe.) D.!._.J._.(.Z.7.U Z N H T ~ R S #.=.#.o.0.R % & a + , # L.L.c.t.2.v q { X.6.7.t.r.5.1.7.7.2.2.3.1.) ) }.V.3.K 2.K ",
"U. X.X].@Xk.W U.R.!.n.T.[.G.5.A H B H ! / ~ H >.8.1.-.e.{ >   h . p X L.~.^.A.U.P x -.8.t.t.i.r.i.r.w.$.1.3.d.2.( 1.!.~.Z.g.2._ ",
"~.{.OX$XoXc.| _.[.(.W.G.(.!.w./ ( P R ' / ! J 5.5.y.5.P.>.  > p + p # I.U.Y.!.!.~ v 2.t.g.x.i.0.r.i.r.1.t.g.x.t.| ] /.G.Y.g.0.( ",
"E._.`. X@Xk.X.R.{.'.{.J._.{.V.e.e.5.:.,.X.{ J 2.1.w.i.V.;.- . f < , . /.W.^.U.V.! b e.N.N.Z.c.r.g.j.u.r.C.Z.v.i.-.) U.D.T.V.D.| ",
"K.`.oX X$XN. .`.XXXX'.(.(.(.Z.u.m.u.5.#.{ / J ,.0.t.i.D.2.# $ f + p . /.`.R.].~.! D l.A.N.A.V.j.C.c.c.c.C.Z.L.c.-.1.[.c.D.V.D.-.",
"I._.W.`.oXv. .L.{.+X{.XX`.!.Y.m.b.d.w.,.X.{ ! 8.c.x.V..X;.# < s . d ; W.Q.D.XX(./ D k.B.N.A.Z.Z.V.C.A.L.C.C.U.c.-.;.'.G.c.!.~.1.",
"I.`.%XE ].f._ Y.XX+XXX|.{.T.L.u.u.t.j.9.>.../ t.r.~.+.d.3.# $ f < , . `.K.%XQ {.&.E N.P.A.K.N.Z.D.~.D.L.Z.v.c.0._ X.^.~.v.1.Y.2.",
"K. X} D ^.9.^  X^.I. X@X{.}.N.c.g.1.k.N.e. .~ d.k...v e.3.# # g < < : /.I.E ~ ^.} E E.E.E.P.P.T.T.E.^.K.K.B.d.>...W P.S.( K g.+.",
"K.`. XW.#X,.^ W. XXXP. X}.{.B.j.j.6.S.P.Z.l.d.l.G.).x.(.q.# : g + f . `..XW.}.R.} } E.W.E._.W._.E.W._.^._.W.A.u.( +.~.t.-.3.~.1.",
"K.`. XoXW.9.} W.W.]._.{.{.{.Y.Y.'.Z.D.'.^.B.k.x.c.T.g.~.f.# + g - p - E.^..X{.{.} } `.W.E.{.(.`.`.W._./.[.W.A.e._ R ~.S.t.S.g.W ",
"K.W.W.`.XX,.E E.}.W.{.{.{.'.W.P.S.P.Z.P.P.Y.h.h.V.Z.g.A.q.# , p , 2 : W.R.^.^.^.} &.`./.`.`.`._. X`.`.{.{.[.^.N.1.W G.i.1.V.2.( ",
"B.W.I.{. X&.D E.`._.{.{.W.K._._.Z.D.!.^.~.L.2.2.n.j.2.t.q.@ . m - 8 X L..X^.A.A.E ^ `.`. X X X X X X X X{.[._.A.+.I S.y.1.r.r.N ",
"B.I.W.`.`.} { _.{.^.E._.`.^.Y.XXU.v.~.^./.L.g.3.B.m.2.w.q.: . s + d - I./.'.A.'.o.,. XoX`.oX X X XoX X X X_.(.A.-.| Z.0.2.1.+.A ",
"C._. X{.{.&./ `.{.W.Y.`.(.E.A.|.~.v.!.}.].A.v.g.G.t.:.~.q.@ : f # p @ R.s.'.^.^./ &.E.E.K. X XoXoX X X XoX_._.U.r._ H.6.1.1.1.B ",
"K.`.{./ E./ o.E._.N.w.P.{.T.{._.Z.~.^.^.^.^.U.h.S.D.-.`.h.* # f - 8 # ^.d.].-..X,.<.`.K.v.I. X XoX X`. X@X[.[.(.j.) M.1.@.A 1.K ",
"B.`. .l C.T ) x.n.r.e.u.T.G.U.R.M.G.(.[.^.Y.P.9.D.:.G d.f.# : s - 5 $ Q.z.L F '.*.3.P.G.A.T.OX~.}.oX X.X+X}.~.V.g.o.H.#.| P $.! ",
"n.Y.c.q.0.( B m.n.r.y.n.G.V.Z.T.k.G.n.n.L.E.s.l.`.Y.N.~.a.- $ s . s + Q./.V.Z.m.o. .L.B.T.[.|._.}.`.{.}.].~.Z.g.w.' T.S.g.| 0.! ",
"n.k.s.s._ B F t.G.5.r.M.G.Z._.T.k.F.u.A.L.L.h.h.OX~.D.Y.q.& + k < p - I.'.}.G.y.B R h.N.M.).[.[./.{.].}.P.g.Z.d.1...P.Z.H.~.V.| ",
"e.J x.d.=.x b 6.j.u.b.p.U.}.(.Z.G.b.Y._.E.P.B.k.^.'.Y.L.3.: : p . , . I.~.(.m.' H { e.n.b.T.(.T.e.].^.}.|.k.u.e.-.#.~.j.V.'.c.| ",
"e.Y =.+.~ B l ..x.:.j.J.H.[.P.).(.!.~.'.`.B.B.k.T.[._.Z.} & # s . f & z.v.>.#.] B T 0.t.i.S.!.F.^.^.}.U.!.P.V.j.-.$.~.!.D.Z.D.X.",
"8.o.;.E Q x u ) $.@.w.6.m.U.S.'.}.(.}.].`.K.a.h.XX(.~.f._ & # z & , . f.c.2.$.7.B K t.w.1.i.i.x.!.~.^.L.~.U.k.2.-.) |.Z.!.u.v.K ",
"-.{ ~ P J x r U %.o.4.r.j.Z.D.G.~.^.'.`._.B.a.f..X[.R.v.*.: > d ; 8 : z.{ 4.6.4.K F 2.i.r.M.i.p.D.U.D.S.v.C.~.j._ | ~.U.w.u.r.) ",
"5./ (.q S l r H / #.o.7.$.S.V.D.F.!.].Y.W.h.q.N..X`.-.D.=.% # s & 1 & h.=.).Z :.K B 2.y.y.y.i.y.x.D.U.v.U.P.~.Z.r.X.^.~.w.W r._ ",
"8.' v 6 J l q P o.] o.%.#.r.j.u.V.!.L.~.K.h.3.v.{.,.H k.;.* # d O 9 . h.+.N y O.C N -.5.4.7.F.m.M.Z.l.n.A.!.E.Z.,.8.'.S.u.R :.:.",
">.' o.R W z 0 P o.] ! %.-.O.j.l.i.C.K.C.v.a.3.v.[.T.G.W.,.* & d ; 8 & z.-.-.@.7.H i 0.6.y.p.M.F.J.M.l.V.G.P.P.A.9.:.{.T.k.#.$.#.",
">.+.o./ D j w R ] ! U / O.4.l.l.c.c.c.c.z.a.3.h.R.R.~.W.>.O O d @ > & C.r.7.p.7.H u ' $.1.7.m.x.m.p.u.b.G.G.K.k.8.>.XXT.Z.!.A.#.",
"-...o.R P x 0 J / ] ] ' o.7.i.i.x.g.c.c.h.=.&.c.P.R.G.Y.,.o & p & 8 # k.6.1.y.y.H v -.6.( 1.r.p.u.p.u.p.N.Z.P.l.9.8.{._.P.).(.X.",
":./ X.! ~ l = J P ~ ! [ $.O.w.6.7.w.j.j.f.X._ h.T.J.P.G.>.* : d & 8 # v.q.r.y.p.H u ( #.] %.6.i.y.p.i.y.u.l.K.v.>.8.@X[.T.}.[.%.",
"6...~ +.R w 1 J ! ~ O.#.r.1.w.5.6.6.g.l.f.=.o.d.P.V.~.G.>.&   d : 1 - L.g.O.4.7.K C I ( [ I 1.r.p.p.w.y.j.j.N.l.,.&.XX].~.~.G.#.",
"5.$.X.+.E l 0 C / o.5.-.#.$.+.1.4.6.l.l.s.X._ h.P.G.T.R.&.% & d & 2 @ L.c.1.1.x.K r O.O.4.4.4.i.i.y.7.i.x.N.k.9./ &.OXP.!.U.U.O.",
"5.' k.v ~ x 3 D { =.o.$.) ] ] :.4.#.:.8.9.o.~ h.W.x...P.,.% ; d & a & A.t.Z.A y.Z l +.:.` @.4.1.4.7.1.5.5.t.e.>.{ &.].D.V.#.y.( ",
":.#.( 7 R J 7 L o.{ ' { ..#.-.@.1.[ 1.-.2._ ) d.U.X.W t.=.: O a + a . B.5.( i 6.R j P H ( ] O.#.@.1.1.%.+.-.w.X._ ..~.x.s.) O.( ",
"6.$.O.o...C w R ^ ^ / ' +.X.#.#.1.O.1.X.*._ E c.U.v.t.~.,.  : d - 2 > z.$.1.@.p.K l ~ U ( ' ' +.1.%.1.1.=.$.2._ W _ ^.g.| L O.( ",
"1.O.#.O.+.v w J Q Y E / ..{ >.+.] ( +.) _ Q E d.~.S.S.U.*.: - p - 2 & A.5.x.p.y.L x R H P U ( :.$.[ ........*.{ W Q A.:.+.-.6.K ",
"1.1.:.5.>.b 9 J Y Y Y E { ~ | | W I ) ~ _ ( T h.!.Z.~.v.X.4 - g ; 2 & N.w.u.p.y.L q L Q ] ` ! #._ L ( L R ) { _ B Q D.+.-.$.$.A ",
"w.1.l.1.=.M 7 J J S J E J Y ' L K L ) ~ o.R H l.S.v.F.x._   $ s ; 2 % v.1.c.y.r.B 4 T ^ X.' U ~ W K L B G R Q T b J B...1.1.2.I ",
"1...r.5.X.H 7 S b D D Y W E R J R W _ _ o.R H l.M.c.M.i.) * : s % 9 O C.1.p.i.1.B e T Y H Q P R K K L V G L T V b F N.-.) ) +.F ",
":.#.5.l.d.J w S b z M Y R J Y D W ) } o.o.E Z u.p.i.y.i.T * # g : 8 ; B.2.2.1.1.B s T Y S P L G V G G V G D J V l S k.>.o.! O.Z ",
"y.#.|.S u.P w M n b b n R b S n D E / ~ / J M 7.F.M.( i._ * 4 5 : 5   C.1.~.A $.B 5 V V b F S V V G V V V b D b w S j.X...F ( v ",
"w.1.K 0 2.W * N l w z b b b z l B S T G S C C r.b.I r 2.{ & : p & > # C.:.N y O.B 4 s z x x c z j b l d z j j e q S k...P u C C ",
"x.t.t.g.3.B T K R ~ R W Q Q ^ W { ' +. .,.../ 7.x.4.@.i.Q @ $ p - 8 # h.-.5.$.0.V T E E L V T J D Y S Y J V T J D R l.Q { x ! S ",
"c.x.g.m.m.!.!.!.A.B.D.U.P.z.W.R.}.[.|.(.'.Y.~.T.6.1.%.r.Q * . 2 . >   a.O.:.O.$.A.L.C.C.Z.Z.C.A.N.N.A.A.A.A.K.v.v.v.g.{ ../ ..M ",
"g.g.!.m.x.3.2.1.5.X.+.8.e.n.d.9.m.j.A.i.l.u.w.;.%.%.$.0.~ % . p . ; & a.#.O.$.$.*.;.*.*.+.| *.} Q &.&.X.>. .-.*.=.+.| R ! R o.v ",
"x.t.c.F.g.t.~.N X.+.-.1.w.5.'.L y.b.g.k.5.e.R.C [ O.! $.R X O 2 . , . <.X.#.7.O.q.G _ :.0.X.L W s.M  .X.+.-.3.=.>.U H P R / / M ",
"x.t.t.c.x.r.K 0 ) 1.+.t.e.>.R 6 4.p.u.j.l.-.! 3 +.+.! 5.^ o O 1 X - X a.-.#.1.@.F j ~ _ +.] { R M 9 ~ X.2.O.2.:.C u S J S E / S ",
"c.m.c.m.M.i.2.O.O.$.-.g.6.-./ :.7.y.w.7.w.>.#.| $.=...0./ o X 2 . ; . q.-...[ %.+.W X.{ X.@.( W Q R #.{ #.1.1.-...~ o.H R U o.b ",
"] K A L B I B B B r N C v b i M i i Z C x x b r x x t b l O O 1 X ;   V u x y y u u d 0 y q y r q x r q x r c q x x 9 q 7 7 9 9 "
};
