/* XPM */
static char *b93e0e5ef5ed4cd29943e86401563a20cHJ8yuY8z9oDZBys[] = {
/* columns rows colors chars-per-pixel */
"64 64 211 2 ",
"   c #010001",
".  c #090505",
"X  c #040C07",
"o  c #040609",
"O  c #090508",
"+  c #040B0B",
"@  c #080C0D",
"#  c #0A0907",
"$  c #07120F",
"%  c #060E11",
"&  c #0A0E11",
"*  c #0C1214",
"=  c #0C1519",
"-  c #0D1B1C",
";  c #051418",
":  c #121415",
">  c #111B15",
",  c #141B1C",
"<  c #191D1C",
"1  c #111419",
"2  c #1A221E",
"3  c #0C1D21",
"4  c #131E22",
"5  c #1D1E22",
"6  c #0F2226",
"7  c #132425",
"8  c #1C2224",
"9  c #142529",
"0  c #1C262A",
"q  c #16292C",
"w  c #1B2B2C",
"e  c #182827",
"r  c #1C2D32",
"t  c #172F31",
"y  c #1D3234",
"u  c #1A383A",
"i  c #212326",
"p  c #222A2D",
"a  c #272A2C",
"s  c #212F32",
"d  c #282D30",
"f  c #233335",
"g  c #2A3334",
"h  c #243539",
"j  c #2B3639",
"k  c #25393B",
"l  c #2C3B3D",
"z  c #333D3E",
"x  c #373A3E",
"c  c #2E413F",
"v  c #243D41",
"b  c #2C3D41",
"n  c #323E40",
"m  c #3B3F42",
"M  c #2C4243",
"N  c #2E4549",
"B  c #2F484C",
"V  c #334344",
"C  c #3B4445",
"Z  c #344549",
"A  c #3B474A",
"S  c #354A4C",
"D  c #3C4B4C",
"F  c #3A504E",
"G  c #354D52",
"H  c #3C4E51",
"J  c #3C5153",
"K  c #3C5457",
"L  c #434C4E",
"P  c #494D4E",
"I  c #414647",
"U  c #414E52",
"Y  c #4B4E51",
"T  c #435355",
"R  c #495356",
"E  c #445559",
"W  c #4A555A",
"Q  c #45595C",
"!  c #4B5A5C",
"~  c #405956",
"^  c #535D5E",
"/  c #555658",
"(  c #4A605E",
")  c #455D61",
"_  c #4C5E61",
"`  c #535F63",
"'  c #4E6264",
"]  c #4E6569",
"[  c #4E6A6D",
"{  c #536365",
"}  c #5A6464",
"|  c #53666A",
" . c #59666A",
".. c #556A6C",
"X. c #5B6B6D",
"o. c #536967",
"O. c #5E716F",
"+. c #566E72",
"@. c #5B6E72",
"#. c #5D7274",
"$. c #5D7479",
"%. c #5D797C",
"&. c #646B6C",
"*. c #696D6E",
"=. c #66716F",
"-. c #636E72",
";. c #6A6F72",
":. c #627376",
">. c #6C7474",
",. c #63757A",
"<. c #69767B",
"1. c #647A7C",
"2. c #6A7C7D",
"3. c #637977",
"4. c #717374",
"5. c #747779",
"6. c #747B7C",
"7. c #7B7B7D",
"8. c #6A807E",
"9. c #77807F",
"0. c #667D82",
"q. c #6A7D81",
"w. c #737F81",
"e. c #7A7F82",
"r. c #6D8285",
"t. c #6D8689",
"y. c #668283",
"u. c #738384",
"i. c #7B8484",
"p. c #738689",
"a. c #7C8689",
"s. c #748A8C",
"d. c #7A8B8D",
"f. c #778D91",
"g. c #7B8E92",
"h. c #7C9294",
"j. c #7F9699",
"k. c #7B9798",
"l. c #848689",
"z. c #828A8B",
"x. c #898D8F",
"c. c #818586",
"v. c #828F92",
"b. c #8A8E92",
"n. c #839395",
"m. c #8D9495",
"M. c #83969A",
"N. c #8D959A",
"B. c #859A9C",
"V. c #8B9B9D",
"C. c #829B97",
"Z. c #939B9C",
"A. c #95979A",
"S. c #86A09F",
"D. c #869EA2",
"F. c #8B9EA2",
"G. c #919FA2",
"H. c #86A1A2",
"J. c #8DA3A5",
"K. c #8DA3A9",
"L. c #92A2A4",
"P. c #9BA3A5",
"I. c #9EA8A7",
"U. c #94A6A9",
"Y. c #9BA6AA",
"T. c #95AAAB",
"R. c #9BABAD",
"E. c #94ACB0",
"W. c #9BADB1",
"Q. c #9DB2B4",
"!. c #97B0B4",
"~. c #A2ABAC",
"^. c #AAAEAE",
"/. c #A2A7A7",
"(. c #A4AEB1",
"). c #AAAEB2",
"_. c #A4B3B4",
"`. c #AAB2B4",
"'. c #A3B5B9",
"]. c #ACB6BA",
"[. c #A5BABC",
"{. c #ACBBBD",
"}. c #B0B6B6",
"|. c #B2BCBE",
" X c #B5BABF",
".X c #ABBDC1",
"XX c #A6BBC0",
"oX c #B5BEC1",
"OX c #B8BDC0",
"+X c #ADC1C4",
"@X c #ABC3C5",
"#X c #B4C2C4",
"$X c #BAC4C5",
"%X c #B4C6CA",
"&X c #BBC6C9",
"*X c #B6CACC",
"=X c #BDCBCC",
"-X c #BCC8C6",
";X c #BBCED3",
":X c #BDD2D3",
">X c #C2CBCC",
",X c #C4CED2",
"<X c #C5D2D4",
"1X c #CAD3D5",
"2X c #CCDCDC",
"3X c #C7D8D9",
"4X c #D4DDDC",
"5X c #D1DFE0",
"6X c #D2E6E8",
"7X c #D6E4E5",
"8X c #E0EAEC",
/* pixels */
"k.XXXXQ.Q.[.T.'.T.L.J.V.L.L.G.M.C.C.S.v.n.C.h.k.f.C.s.M. .% & 5 & < $  .n.p.g.d.s.f.p.f.h.p.s.s.t.f.q.f.M.g.f.p.g.V.v.f.f.d.M.| ",
"U.h.s.k.L.S.R.T._.C.V.s.V.d. .! B.( 8.8.r.2...] f.%...3.U % 1 i o < o 9.:.o.1.' $.$.w.| _ 0.s.3.#.| | ,.,.| ,._ @.$.g.0.p.@.:.K ",
"S.8.s.S.C.J.6XS T.V.2.V.Y.d.<Xy ..#. .@.C.8.6Xh #.,.:.d.R % & 5 1 : + d.X.s.#...L.H Q { @.0.1.X.W.v E p.q.+.#._ f._ { @.X.) 0.n ",
"!.k.#.O.C.T.~ y S.V.L.V.U.V.l 9 ,.@.0.f.n.h.k 9 1.n.:.M.R & + 5 & , % 6.>.X.X.{ v 6 E E | r.p.1.h q ` $.u.r.X.| Z 3 ] @.@.H $.Z ",
"!.k.O.8.k.Q.[.XXQ.g.F.W.(.G.M.M.M.0.-.e.p.g.g.w.s.d.X.n.R @ + 5 o < o i.&.o.o.W o.R { Q ..3.2.y.-.0.@.q.n.2.#.X.| O.3.O.| ,.q.H ",
"T.J.h.k.T.( K F S b h h s b r g v r 9 r s h h b 3.#.2.V.} @ O i @ , + z.o.>. .W 7 e 9 4 w w w y r s q f f r k w t 9 p.o.:.$.! H ",
"T.S.T.k.Q.s.S c r 3 r 4 9 3 4 9 1 4 4 ; 3 ; 3 X.u.d. .i.^ & & < . : $ >.} } ( R f = = , 4 7 7 2 7 e e - e e ; 9 3 M T...o.o.#.y ",
"Q.k.6XF J.3.S [ +...E ) _ U D D b b s b j 4 p  . .`.^ 9.l.^ 4.l.7.;.} }.i.|.f L g = w V d C C c n l z l V f l y e S Q.' 1.Z | k ",
"T.!.G M !.s.K t.h.f.2.| 1. ._ ` m _ n W b g a e.`.R.~.`./.b.e.7.5.4.7.m.~._.~./.9.a g c c x x I L V j Z A Z A b f D '.#.Z y S S ",
"'.U.Q.XX*X%.G k.k.h.B.g.1.<.` T L L U Y b w.G.OXb.} p +                     g } x.}.Z.9.P g C c C A n Z m Z m b k J Q.3.' ( ' M ",
"Q.{.;X@X@Xt.B k.s.f.H.p.d.:.q._ j A U b.).b.Y               o o       o X     X     } /.^.A.c A L L m A Z n m b k T '.f.s.r...M ",
"T._.@X@X*Xf.G f.H.f.f.h.e.-.-.R L e.).x.m O . .   o o o           o                 . . m A.}.a.A R m U W S H U V T '.f.8.%.+.K ",
"{.(.oX%XXX0.K y.!.j.f.0.D.g.-. .I././                   o       O                           Y ).P.` A R W  . .W H ) .Xj.$.#.y.) ",
"W.XX.X;X*X0.N 0.K.K.f.e.M.q.G..X6.o   o     . .               o o   o         .   #           o a.).<.W `  .0.U m ) .XD.$.+.s.G ",
").XX%X;X;Xy.G k.K.!.D.N.q.XXOX .o         . .   .                 o .               . .     o     -.].a.W -.@._ ) +.*Xj.0.[ k.G ",
"(.XX;Xq.*Xt.G f.K.j.W.U..XoXW O   X     .     .                               . .       .       o   W OXG. .-. .H | .Xh.$.K 0.N ",
"(.oXg.U #XV.H B.U.U./.].>XP                                                                           Y  Xz.-.>.W ' %Xr.3.G ' Z ",
").=X'.oX3Xs._ W.{.|. X1X/ O   o                                                                 .   O   } OXz.:.o.E ;XW.r.G r.S ",
"(.>X1X=X2XV.E '..XOXOXw.o                                                                       . o       a.].u.Q -.{.{.W.h.r.' ",
".X>X1X5X<XS.o.#XOX2X).        O                                                                     .       ^.).! X.%X_.XXj.p.Q ",
"|.|.#X=X5XS.X.}.>X>XY   #                                                                         .         C &Xw._ '.(.[.T.W.` ",
"^.-X<X>X5XG.} #X7XZ..                                                                                     o o N.~.X.&XG.T.W.E.0.",
"].#X|.$X<XZ.X.`.,XY   o       .                                                                 .     .       m OXq.&X'.M..XXXq.",
").$X8XW -Xn.} -X).      .                                                                         .       @   o G.x.oX'.Y.0.XXq.",
"~.,X^ A |.9.} 4X=..         .                                                                       .           ;.G.).R.Q H h.@.",
"~.&X-XOX4X=.^ >Xa X                                                                                             g OX|.v.1.p.XX0.",
"~.&X>X1X|.c.8.OX    .                                                                                           O P.$X~.g.E.M.) ",
"R.OX{.$X>X4.9./.  .                                                                                             . G.$Xn.q.U.t.K ",
"L.|._.>X-X&.z.z.                                                                                                  z.-Xv.0.p.f.v ",
"P.].oX=X$X} I.4.      .     o                                                                                     9.-Xu.d.,.+.S ",
"Y.#X,X-X-X&.Z.4.      .                                                                                           >.,Xu.0.%.$.G ",
"~.&X=XW {.{ Z.9.X       .     o                                                                                 . 8.>X2.#.G %.B ",
"Y..XX.f T.D V.a.  .                                                                               X             X c.>X>...G ,.) ",
"Y.{.G.u.i.E >.^.      .                                                                                           I.<XL.M...t.) ",
"G.F.M.h.' l { _.o         X                                                                                       }.|.T.'..XK.[ ",
"d.U V.n.:.h l OXp @   .   .                                                                             .       d }.|.m.U.%XD.| ",
"v.W @.@._ b d _.&.            .                                                                             X   &.).&X`.Q.W.E.$.",
"q. .0.E Q j w z.P.    o .                                                                                 .     ~.a.1XU..Xj.F.G ",
"#.| W T U f 0 ^ ).C                                                                               . .         I ^.&..X'.p.f.g.) ",
"w.` XX9 Z f f m G.N.  +     .                                                                         .       A.|.` %XoXp.K f.] ",
"p.` l 3 D f 0 U } }.C X     o               .                                                       .       P $X>.i.#XR.h.E 1.0.",
"0.] | T E h 7 T o.V.I.      o         .       .                                                 .       o   ^.>Xi.>.=X[.D.#.$.+.",
"0.@.` _ Z s e T { R I.9.  +   @ .         X                                                           o   i.-XZ.r.8.3X[.R.[.E.+.",
",.+.' E T f e D o.( O.{.`             +                                                         @   .   ^ -X}.Z.i.r.=X#X'.*X.X+.",
"1.' O.E ! f - D S o.( s.{.R     o     .                                                             @ L $X_.I.S.8.8.2X*X'.*X*X,.",
"r.| ! X.U w 7 S ( ~ o.O.(.&XI o   .     .                                                       o   L >X^.m.U.n.3.O.3X*X@X@XQ.#.",
"r.#...#.E g q M ~ ( s.O.O.V.|.} o   o                                                           . }  X~.S.L.L.u.' X.3XQ.[.'.'.X.",
"r.' V.k Q f - S o.8.( 3.! X.i.].e.o       .                                                     9.|.V.9.9.d.d.2.' O.*XR.J.#.h.Q ",
"8.#._ 6 T S 9 H { { ' { ..#.:.-.].(.L o o   .               .         .         .   O   o o Y ).'.s.,.0.@.:.f.@._ | .XD.h._ +.) ",
"y.%...] ..V e E ! ^ ! ( O.X.#.#.,.G.oXN.m       .         O   .     .     o     . .     n N..XN.0.@.0.0.@.@.q.` E { oXM.{ H #.) ",
"0.+.#.+.X.k w D ! D ! ( ..| 1.@.X.H -.P.].A./ X     o                 .   o o o   . / A.).N.` <.@.| #.@.| X.:._ E R T.3.@.,.t.G ",
"r.0.3.t.2.k e D U L T T { ! | ..E E ` R  .m.I.|.Z.-.0 o     .     . o   o   g ^ m.^.^.b.X.Q R <.| K K H E Q { { n E _.+.$.$.$.N ",
"s.0.C.1.:.M 7 D D V D E D T { D D H Q ! ^ D F I.=X;X$X|.I.l.7.4.&.>.5.Z.P.#XoX$X7.x P W o.O.H _ E G H b H H R T l D U.X.0.0.q.K ",
"0.[ h.8.@.Z 7 V l V C D R T J D J E ` ` X.( c d.T.L.T.J.i.X.&.c.6.9.=.>Xm.G.h.2.j p I A F F E T G H H Z A H L V l Z L.,.' ' #.N ",
"1.#.r.C.n.D w V l j z D T D T V W ' X.o.o.T N S.h.k.s.n.W - & d * 2 , P.q.p.q.q.l s R V S J S Z n A n n C A H n g M V.3.o.Q ..N ",
"f.#.:XN h.T w c c j l z T z V n V E ^ R ( F c t.Q.J.( h.` = 4 8 - 5 @ Y.,.+XS :.l , z D k M H b n A n n n j V l y V V.....S Q k ",
"p.t.H 9 0.E = v f w h j l l g f b G U G n n M s.D.K r q.{ = 1 i * - % P.q.b r @.b 4 0 h h h v j s j f p g s s w e n V...J y M M ",
"j.f.g.j.e.b E G T ! T R W W ( E ` `  . .0. .' t.D.0.@.M.W & * i = 8 % m.,.q.$.p.m U U W F N U A C T V F D n U D V T M.W { h ~ V ",
"K.B.M.K.K.XXXXXXR.T.R.]._.F.|..X&X&X;XoX%X[.+X'.f.0.$.g.W = & 8 $ , @ x.` 0.+.$.W.(.Y.R.T.R.U.R.L.L.R.Y.T.~.W.G.L.G.M.{  .( O.c ",
"j.M.XXK.D.w.q.0.r.X.@.u.d.L.n.i.U.D.W.h.M.g.s.2.0.0.$.e._ * @ 8 @ > * x.-.+.0.$.-.<.X.@.X.o.#.o.! &.=.X.2. .:.-.:.@.| T E T ' k ",
"B.h.F.!.j.j.XXv X.@.:.q.s.r.#XH f.K.j.D.q.d.XXb _ +.) -.T + $ 2 @ < & 6.@.$.p.+.p.H ` 1.p.+.H W v.c o.O.-.,.w.-.q.T S F ~ ! { c ",
"D.h.f.F.D.e.G q ) 0.#.h.d.2.J 7 t.k.h.B.M.1.) 3 +.$.) q.{ + @ 2 + ,   a.<.@.0.+.V y E ` +.{ { U c 2 ! X.0.+.0.0.b y V F S R ( c ",
"D.F.F.U.K.j.0.+.@.$.,.k.t.,._ q.t.f.s.t.s.0.-.| $.,. .e.{ X X 2 X > % a.0.[ [ 0.X.E #.' X.+._ E Q T #.{ :.,.0.0..._ o.S T T { c ",
"| G B K b K b B b r v M h b k k v u B M h f v r h h r v f $ $ > X 2 o n y u t t y y w 9 t t r r q f t w h r h q y h q q 2 e e e "
};
